# Blender v3.0.0 OBJ File: ''
# www.blender.org
mtllib IslandPlane.mtl
o Plane
v -1.207936 0.000000 1.346561
v 1.404321 0.000000 1.531393
v -0.919136 0.000000 -1.161728
v 1.358113 0.000000 -0.618783
v -1.739330 0.000000 0.057760
v 0.433201 0.000000 -1.438977
v 1.739330 0.000000 0.866402
v 0.681569 0.000000 1.831746
vt 0.000000 0.000000
vt 0.500000 0.000000
vt 1.000000 0.000000
vt 1.000000 0.500000
vt 1.000000 1.000000
vt 0.500000 1.000000
vt 0.000000 1.000000
vt 0.000000 0.500000
vn 0.0000 1.0000 0.0000
usemtl None
s off
f 1/1/1 8/2/1 2/3/1 7/4/1 4/5/1 6/6/1 3/7/1 5/8/1
