# Blender v3.0.0 OBJ File: ''
# www.blender.org
mtllib IslandPlane.mtl
o Plane
v -1.207936 -0.000000 1.346561
v 0.681569 -0.000000 1.831746
v 1.404321 -0.000000 1.531393
v 1.739330 -0.000000 0.866402
v 1.358113 0.000000 -0.618783
v 0.433201 0.000000 -1.438977
v -0.919136 0.000000 -1.161728
v -1.739330 -0.000000 0.057760
v -0.992678 -1.171074 1.188929
v 0.611742 -1.171074 1.600910
v 1.225447 -1.171074 1.345873
v 1.509910 -1.171074 0.781215
v 1.186211 -1.171074 -0.479888
v 0.400847 -1.171074 -1.176332
v -0.747451 -1.171074 -0.940914
v -1.443896 -1.171074 0.094580
v -0.588220 0.017662 1.810119
vt 0.000000 0.000000
vt 0.125000 0.000000
vt 0.500000 0.000000
vt 1.000000 0.000000
vt 1.000000 0.500000
vt 1.000000 1.000000
vt 0.500000 1.000000
vt 0.000000 1.000000
vt 0.000000 0.500000
vt 0.000000 0.000000
vt 0.000000 0.500000
vt 0.000000 1.000000
vt 0.500000 1.000000
vt 1.000000 1.000000
vt 1.000000 0.500000
vt 1.000000 0.000000
vt 0.500000 0.000000
vn 0.0005 1.0000 -0.0020
vn 0.0002 1.0000 -0.0020
vn 0.0000 -1.0000 -0.0000
vn -0.9027 -0.2160 0.3722
vn 0.6523 -0.1830 -0.7356
vn 0.8744 -0.2033 0.4405
vn -0.2413 -0.2323 0.9422
vn -0.2404 -0.2295 0.9431
vn -0.2397 -0.2318 0.9428
vn -0.2407 -0.2280 0.9435
vn -0.8092 -0.2213 -0.5443
vn -0.1964 -0.2094 -0.9579
vn 0.9546 -0.1692 -0.2450
vn 0.3759 -0.2007 0.9046
usemtl None
s off
f 1/1/1 17/2/2 2/3/1 3/4/2 4/5/2 5/6/2 6/7/2 7/8/2 8/9/1
f 9/10/3 16/11/3 15/12/3 14/13/3 13/14/3 12/15/3 11/16/3 10/17/3
f 8/9/4 16/11/4 9/10/4 1/1/4
f 5/6/5 13/14/5 14/13/5 6/7/5
f 3/4/6 11/16/6 12/15/6 4/5/6
f 1/1/7 9/10/8 10/17/8 2/3/9 17/2/10
f 7/8/11 15/12/11 16/11/11 8/9/11
f 6/7/12 14/13/12 15/12/12 7/8/12
f 4/5/13 12/15/13 13/14/13 5/6/13
f 2/3/14 10/17/14 11/16/14 3/4/14
